<mxfile host="app.diagrams.net" modified="2023-11-26T10:02:03.828Z" agent="5.0 (Macintosh; Intel Mac OS X 10_15_7) AppleWebKit/537.36 (KHTML, like Gecko) Chrome/119.0.0.0 Safari/537.36" etag="ITCv68_wmKbVw3Owmm7Z" version="20.8.17" type="github">
  <diagram name="第 1 页" id="qOLujDdb-EVC4hGFYHVD">
    <mxGraphModel dx="954" dy="585" grid="1" gridSize="10" guides="1" tooltips="1" connect="1" arrows="1" fold="1" page="1" pageScale="1" pageWidth="827" pageHeight="1169" math="0" shadow="0">
      <root>
        <mxCell id="0" />
        <mxCell id="1" parent="0" />
        <mxCell id="ezKRabk0gYsE68m_MMmU-3" style="edgeStyle=orthogonalEdgeStyle;rounded=0;orthogonalLoop=1;jettySize=auto;html=1;exitX=1;exitY=0.5;exitDx=0;exitDy=0;entryX=0;entryY=0.5;entryDx=0;entryDy=0;" edge="1" parent="1" source="ezKRabk0gYsE68m_MMmU-1" target="ezKRabk0gYsE68m_MMmU-4">
          <mxGeometry relative="1" as="geometry">
            <mxPoint x="410" y="160" as="targetPoint" />
          </mxGeometry>
        </mxCell>
        <mxCell id="ezKRabk0gYsE68m_MMmU-1" value="小程序端使用wx.login&lt;br style=&quot;color: rgb(50, 50, 50); font-family: &amp;quot;Microsoft YaHei&amp;quot;, 微软雅黑, Arial; font-size: 13px;&quot;&gt;&lt;span style=&quot;color: rgb(50, 50, 50); font-family: &amp;quot;Microsoft YaHei&amp;quot;, 微软雅黑, Arial; font-size: 13px; background-color: rgba(255, 255, 255, 0.01);&quot;&gt;获取登录凭证code&lt;/span&gt;" style="rounded=0;whiteSpace=wrap;html=1;" vertex="1" parent="1">
          <mxGeometry x="100" y="130" width="120" height="60" as="geometry" />
        </mxCell>
        <mxCell id="ezKRabk0gYsE68m_MMmU-2" value="&lt;meta charset=&quot;utf-8&quot;&gt;&lt;div data-processon-v=&quot;{&amp;quot;list&amp;quot;:[{&amp;quot;id&amp;quot;:&amp;quot;CQeLDbkyoM797806&amp;quot;,&amp;quot;name&amp;quot;:&amp;quot;rectangle&amp;quot;,&amp;quot;title&amp;quot;:&amp;quot;矩形&amp;quot;,&amp;quot;category&amp;quot;:&amp;quot;basic&amp;quot;,&amp;quot;group&amp;quot;:&amp;quot;&amp;quot;,&amp;quot;groupName&amp;quot;:null,&amp;quot;locked&amp;quot;:false,&amp;quot;link&amp;quot;:&amp;quot;&amp;quot;,&amp;quot;children&amp;quot;:[],&amp;quot;parent&amp;quot;:&amp;quot;&amp;quot;,&amp;quot;resizeDir&amp;quot;:[&amp;quot;tl&amp;quot;,&amp;quot;tr&amp;quot;,&amp;quot;br&amp;quot;,&amp;quot;bl&amp;quot;,&amp;quot;l&amp;quot;,&amp;quot;t&amp;quot;,&amp;quot;r&amp;quot;,&amp;quot;b&amp;quot;],&amp;quot;attribute&amp;quot;:{&amp;quot;container&amp;quot;:false,&amp;quot;visible&amp;quot;:true,&amp;quot;rotatable&amp;quot;:true,&amp;quot;linkable&amp;quot;:true,&amp;quot;collapsable&amp;quot;:false,&amp;quot;collapsed&amp;quot;:false,&amp;quot;fixedLink&amp;quot;:false,&amp;quot;markerOffset&amp;quot;:5},&amp;quot;dataAttributes&amp;quot;:[{&amp;quot;name&amp;quot;:&amp;quot;序号&amp;quot;,&amp;quot;type&amp;quot;:&amp;quot;number&amp;quot;,&amp;quot;value&amp;quot;:&amp;quot;&amp;quot;,&amp;quot;category&amp;quot;:&amp;quot;default&amp;quot;,&amp;quot;id&amp;quot;:&amp;quot;WIHxkGboGt013697&amp;quot;},{&amp;quot;name&amp;quot;:&amp;quot;名称&amp;quot;,&amp;quot;type&amp;quot;:&amp;quot;string&amp;quot;,&amp;quot;value&amp;quot;:&amp;quot;&amp;quot;,&amp;quot;category&amp;quot;:&amp;quot;default&amp;quot;,&amp;quot;id&amp;quot;:&amp;quot;HXeWpvjEBd980781&amp;quot;},{&amp;quot;name&amp;quot;:&amp;quot;所有者&amp;quot;,&amp;quot;type&amp;quot;:&amp;quot;string&amp;quot;,&amp;quot;value&amp;quot;:&amp;quot;&amp;quot;,&amp;quot;category&amp;quot;:&amp;quot;default&amp;quot;,&amp;quot;id&amp;quot;:&amp;quot;hDYLKAUNrs036598&amp;quot;},{&amp;quot;name&amp;quot;:&amp;quot;连接&amp;quot;,&amp;quot;type&amp;quot;:&amp;quot;link&amp;quot;,&amp;quot;value&amp;quot;:&amp;quot;&amp;quot;,&amp;quot;category&amp;quot;:&amp;quot;default&amp;quot;,&amp;quot;id&amp;quot;:&amp;quot;bzwLGdCbMu353492&amp;quot;},{&amp;quot;name&amp;quot;:&amp;quot;便笺&amp;quot;,&amp;quot;type&amp;quot;:&amp;quot;string&amp;quot;,&amp;quot;value&amp;quot;:&amp;quot;&amp;quot;,&amp;quot;category&amp;quot;:&amp;quot;default&amp;quot;,&amp;quot;id&amp;quot;:&amp;quot;PkpNrgzdtv998493&amp;quot;}],&amp;quot;props&amp;quot;:{&amp;quot;x&amp;quot;:308,&amp;quot;y&amp;quot;:65,&amp;quot;w&amp;quot;:168,&amp;quot;h&amp;quot;:54,&amp;quot;zindex&amp;quot;:1,&amp;quot;angle&amp;quot;:0},&amp;quot;shapeStyle&amp;quot;:{&amp;quot;alpha&amp;quot;:1},&amp;quot;lineStyle&amp;quot;:{&amp;quot;lineWidth&amp;quot;:1.5},&amp;quot;fillStyle&amp;quot;:{},&amp;quot;theme&amp;quot;:{},&amp;quot;path&amp;quot;:[{&amp;quot;actions&amp;quot;:[{&amp;quot;action&amp;quot;:&amp;quot;move&amp;quot;,&amp;quot;x&amp;quot;:&amp;quot;0&amp;quot;,&amp;quot;y&amp;quot;:&amp;quot;0&amp;quot;},{&amp;quot;action&amp;quot;:&amp;quot;line&amp;quot;,&amp;quot;x&amp;quot;:&amp;quot;w&amp;quot;,&amp;quot;y&amp;quot;:&amp;quot;0&amp;quot;},{&amp;quot;action&amp;quot;:&amp;quot;line&amp;quot;,&amp;quot;x&amp;quot;:&amp;quot;w&amp;quot;,&amp;quot;y&amp;quot;:&amp;quot;h&amp;quot;},{&amp;quot;action&amp;quot;:&amp;quot;line&amp;quot;,&amp;quot;x&amp;quot;:&amp;quot;0&amp;quot;,&amp;quot;y&amp;quot;:&amp;quot;h&amp;quot;},{&amp;quot;action&amp;quot;:&amp;quot;close&amp;quot;}]}],&amp;quot;fontStyle&amp;quot;:{},&amp;quot;textBlock&amp;quot;:[{&amp;quot;position&amp;quot;:{&amp;quot;x&amp;quot;:10,&amp;quot;y&amp;quot;:0,&amp;quot;w&amp;quot;:&amp;quot;w-20&amp;quot;,&amp;quot;h&amp;quot;:&amp;quot;h&amp;quot;},&amp;quot;text&amp;quot;:&amp;quot;小程序端使用wx.login&lt;br&gt;获取登录凭证code&amp;quot;}],&amp;quot;anchors&amp;quot;:[{&amp;quot;x&amp;quot;:&amp;quot;w/2&amp;quot;,&amp;quot;y&amp;quot;:&amp;quot;0&amp;quot;},{&amp;quot;x&amp;quot;:&amp;quot;w/2&amp;quot;,&amp;quot;y&amp;quot;:&amp;quot;h&amp;quot;},{&amp;quot;x&amp;quot;:&amp;quot;0&amp;quot;,&amp;quot;y&amp;quot;:&amp;quot;h/2&amp;quot;},{&amp;quot;x&amp;quot;:&amp;quot;w&amp;quot;,&amp;quot;y&amp;quot;:&amp;quot;h/2&amp;quot;}]},{&amp;quot;id&amp;quot;:&amp;quot;YmXvgsuiXa071805&amp;quot;,&amp;quot;name&amp;quot;:&amp;quot;linker&amp;quot;,&amp;quot;text&amp;quot;:&amp;quot;发给后端&amp;quot;,&amp;quot;group&amp;quot;:&amp;quot;&amp;quot;,&amp;quot;linkerType&amp;quot;:&amp;quot;broken&amp;quot;,&amp;quot;points&amp;quot;:[{&amp;quot;x&amp;quot;:543,&amp;quot;y&amp;quot;:92},{&amp;quot;x&amp;quot;:543,&amp;quot;y&amp;quot;:94}],&amp;quot;locked&amp;quot;:false,&amp;quot;dataAttributes&amp;quot;:[],&amp;quot;props&amp;quot;:{&amp;quot;zindex&amp;quot;:3},&amp;quot;lineStyle&amp;quot;:{&amp;quot;lineWidth&amp;quot;:1.5},&amp;quot;from&amp;quot;:{&amp;quot;x&amp;quot;:476,&amp;quot;y&amp;quot;:92,&amp;quot;angle&amp;quot;:3.1415926535897922,&amp;quot;id&amp;quot;:&amp;quot;CQeLDbkyoM797806&amp;quot;},&amp;quot;to&amp;quot;:{&amp;quot;id&amp;quot;:&amp;quot;bNRDpEDCiG322243&amp;quot;,&amp;quot;x&amp;quot;:610,&amp;quot;y&amp;quot;:94,&amp;quot;angle&amp;quot;:0},&amp;quot;textBlock&amp;quot;:[{&amp;quot;text&amp;quot;:&amp;quot;发给后端&amp;quot;,&amp;quot;location&amp;quot;:0.40707964601769914}],&amp;quot;textPos&amp;quot;:{&amp;quot;x&amp;quot;:531.362831858407,&amp;quot;y&amp;quot;:92,&amp;quot;t&amp;quot;:17}},{&amp;quot;id&amp;quot;:&amp;quot;bNRDpEDCiG322243&amp;quot;,&amp;quot;name&amp;quot;:&amp;quot;rectangle&amp;quot;,&amp;quot;title&amp;quot;:&amp;quot;矩形&amp;quot;,&amp;quot;category&amp;quot;:&amp;quot;basic&amp;quot;,&amp;quot;group&amp;quot;:&amp;quot;&amp;quot;,&amp;quot;groupName&amp;quot;:null,&amp;quot;locked&amp;quot;:false,&amp;quot;link&amp;quot;:&amp;quot;&amp;quot;,&amp;quot;children&amp;quot;:[],&amp;quot;parent&amp;quot;:&amp;quot;&amp;quot;,&amp;quot;resizeDir&amp;quot;:[&amp;quot;tl&amp;quot;,&amp;quot;tr&amp;quot;,&amp;quot;br&amp;quot;,&amp;quot;bl&amp;quot;,&amp;quot;l&amp;quot;,&amp;quot;t&amp;quot;,&amp;quot;r&amp;quot;,&amp;quot;b&amp;quot;],&amp;quot;attribute&amp;quot;:{&amp;quot;container&amp;quot;:false,&amp;quot;visible&amp;quot;:true,&amp;quot;rotatable&amp;quot;:true,&amp;quot;linkable&amp;quot;:true,&amp;quot;collapsable&amp;quot;:false,&amp;quot;collapsed&amp;quot;:false,&amp;quot;fixedLink&amp;quot;:false,&amp;quot;markerOffset&amp;quot;:5},&amp;quot;dataAttributes&amp;quot;:[{&amp;quot;name&amp;quot;:&amp;quot;序号&amp;quot;,&amp;quot;type&amp;quot;:&amp;quot;number&amp;quot;,&amp;quot;value&amp;quot;:&amp;quot;&amp;quot;,&amp;quot;category&amp;quot;:&amp;quot;default&amp;quot;,&amp;quot;id&amp;quot;:&amp;quot;IklOKVZjUq912316&amp;quot;},{&amp;quot;name&amp;quot;:&amp;quot;名称&amp;quot;,&amp;quot;type&amp;quot;:&amp;quot;string&amp;quot;,&amp;quot;value&amp;quot;:&amp;quot;&amp;quot;,&amp;quot;category&amp;quot;:&amp;quot;default&amp;quot;,&amp;quot;id&amp;quot;:&amp;quot;ITYTDadboF413794&amp;quot;},{&amp;quot;name&amp;quot;:&amp;quot;所有者&amp;quot;,&amp;quot;type&amp;quot;:&amp;quot;string&amp;quot;,&amp;quot;value&amp;quot;:&amp;quot;&amp;quot;,&amp;quot;category&amp;quot;:&amp;quot;default&amp;quot;,&amp;quot;id&amp;quot;:&amp;quot;BqMojsIXcP664291&amp;quot;},{&amp;quot;name&amp;quot;:&amp;quot;连接&amp;quot;,&amp;quot;type&amp;quot;:&amp;quot;link&amp;quot;,&amp;quot;value&amp;quot;:&amp;quot;&amp;quot;,&amp;quot;category&amp;quot;:&amp;quot;default&amp;quot;,&amp;quot;id&amp;quot;:&amp;quot;dLGlpQVZqM148122&amp;quot;},{&amp;quot;name&amp;quot;:&amp;quot;便笺&amp;quot;,&amp;quot;type&amp;quot;:&amp;quot;string&amp;quot;,&amp;quot;value&amp;quot;:&amp;quot;&amp;quot;,&amp;quot;category&amp;quot;:&amp;quot;default&amp;quot;,&amp;quot;id&amp;quot;:&amp;quot;LccTqFyEQg652180&amp;quot;}],&amp;quot;props&amp;quot;:{&amp;quot;x&amp;quot;:610,&amp;quot;y&amp;quot;:69,&amp;quot;w&amp;quot;:197,&amp;quot;h&amp;quot;:50,&amp;quot;zindex&amp;quot;:4,&amp;quot;angle&amp;quot;:0},&amp;quot;shapeStyle&amp;quot;:{&amp;quot;alpha&amp;quot;:1},&amp;quot;lineStyle&amp;quot;:{&amp;quot;lineWidth&amp;quot;:1.5},&amp;quot;fillStyle&amp;quot;:{},&amp;quot;theme&amp;quot;:{},&amp;quot;path&amp;quot;:[{&amp;quot;actions&amp;quot;:[{&amp;quot;action&amp;quot;:&amp;quot;move&amp;quot;,&amp;quot;x&amp;quot;:&amp;quot;0&amp;quot;,&amp;quot;y&amp;quot;:&amp;quot;0&amp;quot;},{&amp;quot;action&amp;quot;:&amp;quot;line&amp;quot;,&amp;quot;x&amp;quot;:&amp;quot;w&amp;quot;,&amp;quot;y&amp;quot;:&amp;quot;0&amp;quot;},{&amp;quot;action&amp;quot;:&amp;quot;line&amp;quot;,&amp;quot;x&amp;quot;:&amp;quot;w&amp;quot;,&amp;quot;y&amp;quot;:&amp;quot;h&amp;quot;},{&amp;quot;action&amp;quot;:&amp;quot;line&amp;quot;,&amp;quot;x&amp;quot;:&amp;quot;0&amp;quot;,&amp;quot;y&amp;quot;:&amp;quot;h&amp;quot;},{&amp;quot;action&amp;quot;:&amp;quot;close&amp;quot;}]}],&amp;quot;fontStyle&amp;quot;:{},&amp;quot;textBlock&amp;quot;:[{&amp;quot;position&amp;quot;:{&amp;quot;x&amp;quot;:10,&amp;quot;y&amp;quot;:0,&amp;quot;w&amp;quot;:&amp;quot;w-20&amp;quot;,&amp;quot;h&amp;quot;:&amp;quot;h&amp;quot;},&amp;quot;text&amp;quot;:&amp;quot;后端用code向微信服务器换取session&amp;nbsp;key和openid、unionid&amp;quot;}],&amp;quot;anchors&amp;quot;:[{&amp;quot;x&amp;quot;:&amp;quot;w/2&amp;quot;,&amp;quot;y&amp;quot;:&amp;quot;0&amp;quot;},{&amp;quot;x&amp;quot;:&amp;quot;w/2&amp;quot;,&amp;quot;y&amp;quot;:&amp;quot;h&amp;quot;},{&amp;quot;x&amp;quot;:&amp;quot;0&amp;quot;,&amp;quot;y&amp;quot;:&amp;quot;h/2&amp;quot;},{&amp;quot;x&amp;quot;:&amp;quot;w&amp;quot;,&amp;quot;y&amp;quot;:&amp;quot;h/2&amp;quot;}]},{&amp;quot;id&amp;quot;:&amp;quot;RPedhrCeJn736700&amp;quot;,&amp;quot;name&amp;quot;:&amp;quot;linker&amp;quot;,&amp;quot;text&amp;quot;:&amp;quot;发给小程序端&amp;quot;,&amp;quot;group&amp;quot;:&amp;quot;&amp;quot;,&amp;quot;linkerType&amp;quot;:&amp;quot;broken&amp;quot;,&amp;quot;points&amp;quot;:[{&amp;quot;x&amp;quot;:708.5,&amp;quot;y&amp;quot;:194}],&amp;quot;locked&amp;quot;:false,&amp;quot;dataAttributes&amp;quot;:[],&amp;quot;props&amp;quot;:{&amp;quot;zindex&amp;quot;:5},&amp;quot;lineStyle&amp;quot;:{&amp;quot;lineWidth&amp;quot;:1.5},&amp;quot;from&amp;quot;:{&amp;quot;x&amp;quot;:708.5,&amp;quot;y&amp;quot;:119,&amp;quot;angle&amp;quot;:4.71238898038469,&amp;quot;id&amp;quot;:&amp;quot;bNRDpEDCiG322243&amp;quot;},&amp;quot;to&amp;quot;:{&amp;quot;id&amp;quot;:&amp;quot;chOBSgmkIm394255&amp;quot;,&amp;quot;x&amp;quot;:502,&amp;quot;y&amp;quot;:194,&amp;quot;angle&amp;quot;:3.1415926535897936},&amp;quot;textBlock&amp;quot;:[{&amp;quot;text&amp;quot;:&amp;quot;发给小程序端&amp;quot;,&amp;quot;location&amp;quot;:0.5986509274873525}],&amp;quot;textPos&amp;quot;:{&amp;quot;x&amp;quot;:605.25,&amp;quot;y&amp;quot;:194,&amp;quot;t&amp;quot;:30}},{&amp;quot;id&amp;quot;:&amp;quot;chOBSgmkIm394255&amp;quot;,&amp;quot;name&amp;quot;:&amp;quot;rectangle&amp;quot;,&amp;quot;title&amp;quot;:&amp;quot;矩形&amp;quot;,&amp;quot;category&amp;quot;:&amp;quot;basic&amp;quot;,&amp;quot;group&amp;quot;:&amp;quot;&amp;quot;,&amp;quot;groupName&amp;quot;:null,&amp;quot;locked&amp;quot;:false,&amp;quot;link&amp;quot;:&amp;quot;&amp;quot;,&amp;quot;children&amp;quot;:[],&amp;quot;parent&amp;quot;:&amp;quot;&amp;quot;,&amp;quot;resizeDir&amp;quot;:[&amp;quot;tl&amp;quot;,&amp;quot;tr&amp;quot;,&amp;quot;br&amp;quot;,&amp;quot;bl&amp;quot;,&amp;quot;l&amp;quot;,&amp;quot;t&amp;quot;,&amp;quot;r&amp;quot;,&amp;quot;b&amp;quot;],&amp;quot;attribute&amp;quot;:{&amp;quot;container&amp;quot;:false,&amp;quot;visible&amp;quot;:true,&amp;quot;rotatable&amp;quot;:true,&amp;quot;linkable&amp;quot;:true,&amp;quot;collapsable&amp;quot;:false,&amp;quot;collapsed&amp;quot;:false,&amp;quot;fixedLink&amp;quot;:false,&amp;quot;markerOffset&amp;quot;:5},&amp;quot;dataAttributes&amp;quot;:[{&amp;quot;name&amp;quot;:&amp;quot;序号&amp;quot;,&amp;quot;type&amp;quot;:&amp;quot;number&amp;quot;,&amp;quot;value&amp;quot;:&amp;quot;&amp;quot;,&amp;quot;category&amp;quot;:&amp;quot;default&amp;quot;,&amp;quot;id&amp;quot;:&amp;quot;IPRnlkyhgO779385&amp;quot;},{&amp;quot;name&amp;quot;:&amp;quot;名称&amp;quot;,&amp;quot;type&amp;quot;:&amp;quot;string&amp;quot;,&amp;quot;value&amp;quot;:&amp;quot;&amp;quot;,&amp;quot;category&amp;quot;:&amp;quot;default&amp;quot;,&amp;quot;id&amp;quot;:&amp;quot;PhkiFdNhGh101312&amp;quot;},{&amp;quot;name&amp;quot;:&amp;quot;所有者&amp;quot;,&amp;quot;type&amp;quot;:&amp;quot;string&amp;quot;,&amp;quot;value&amp;quot;:&amp;quot;&amp;quot;,&amp;quot;category&amp;quot;:&amp;quot;default&amp;quot;,&amp;quot;id&amp;quot;:&amp;quot;vUakzownIQ444440&amp;quot;},{&amp;quot;name&amp;quot;:&amp;quot;连接&amp;quot;,&amp;quot;type&amp;quot;:&amp;quot;link&amp;quot;,&amp;quot;value&amp;quot;:&amp;quot;&amp;quot;,&amp;quot;category&amp;quot;:&amp;quot;default&amp;quot;,&amp;quot;id&amp;quot;:&amp;quot;OdYbEKPJwN289634&amp;quot;},{&amp;quot;name&amp;quot;:&amp;quot;便笺&amp;quot;,&amp;quot;type&amp;quot;:&amp;quot;string&amp;quot;,&amp;quot;value&amp;quot;:&amp;quot;&amp;quot;,&amp;quot;category&amp;quot;:&amp;quot;default&amp;quot;,&amp;quot;id&amp;quot;:&amp;quot;ONlCXNBFum658900&amp;quot;}],&amp;quot;props&amp;quot;:{&amp;quot;x&amp;quot;:308,&amp;quot;y&amp;quot;:155,&amp;quot;w&amp;quot;:194,&amp;quot;h&amp;quot;:78,&amp;quot;zindex&amp;quot;:6,&amp;quot;angle&amp;quot;:0},&amp;quot;shapeStyle&amp;quot;:{&amp;quot;alpha&amp;quot;:1},&amp;quot;lineStyle&amp;quot;:{&amp;quot;lineWidth&amp;quot;:1.5},&amp;quot;fillStyle&amp;quot;:{},&amp;quot;theme&amp;quot;:{},&amp;quot;path&amp;quot;:[{&amp;quot;actions&amp;quot;:[{&amp;quot;action&amp;quot;:&amp;quot;move&amp;quot;,&amp;quot;x&amp;quot;:&amp;quot;0&amp;quot;,&amp;quot;y&amp;quot;:&amp;quot;0&amp;quot;},{&amp;quot;action&amp;quot;:&amp;quot;line&amp;quot;,&amp;quot;x&amp;quot;:&amp;quot;w&amp;quot;,&amp;quot;y&amp;quot;:&amp;quot;0&amp;quot;},{&amp;quot;action&amp;quot;:&amp;quot;line&amp;quot;,&amp;quot;x&amp;quot;:&amp;quot;w&amp;quot;,&amp;quot;y&amp;quot;:&amp;quot;h&amp;quot;},{&amp;quot;action&amp;quot;:&amp;quot;line&amp;quot;,&amp;quot;x&amp;quot;:&amp;quot;0&amp;quot;,&amp;quot;y&amp;quot;:&amp;quot;h&amp;quot;},{&amp;quot;action&amp;quot;:&amp;quot;close&amp;quot;}]}],&amp;quot;fontStyle&amp;quot;:{},&amp;quot;textBlock&amp;quot;:[{&amp;quot;position&amp;quot;:{&amp;quot;x&amp;quot;:10,&amp;quot;y&amp;quot;:0,&amp;quot;w&amp;quot;:&amp;quot;w-20&amp;quot;,&amp;quot;h&amp;quot;:&amp;quot;h&amp;quot;},&amp;quot;text&amp;quot;:&amp;quot;用户点击小程序里的选择手机号授权按钮，&lt;div&gt;调用getPhoneNumber获取encryptedData&amp;nbsp;和&amp;nbsp;iv&lt;/div&gt;&amp;quot;}],&amp;quot;anchors&amp;quot;:[{&amp;quot;x&amp;quot;:&amp;quot;w/2&amp;quot;,&amp;quot;y&amp;quot;:&amp;quot;0&amp;quot;},{&amp;quot;x&amp;quot;:&amp;quot;w/2&amp;quot;,&amp;quot;y&amp;quot;:&amp;quot;h&amp;quot;},{&amp;quot;x&amp;quot;:&amp;quot;0&amp;quot;,&amp;quot;y&amp;quot;:&amp;quot;h/2&amp;quot;},{&amp;quot;x&amp;quot;:&amp;quot;w&amp;quot;,&amp;quot;y&amp;quot;:&amp;quot;h/2&amp;quot;}]},{&amp;quot;id&amp;quot;:&amp;quot;OExAdgNbuQ426973&amp;quot;,&amp;quot;name&amp;quot;:&amp;quot;linker&amp;quot;,&amp;quot;text&amp;quot;:&amp;quot;发给后端&amp;quot;,&amp;quot;group&amp;quot;:&amp;quot;&amp;quot;,&amp;quot;linkerType&amp;quot;:&amp;quot;broken&amp;quot;,&amp;quot;points&amp;quot;:[{&amp;quot;x&amp;quot;:405,&amp;quot;y&amp;quot;:285}],&amp;quot;locked&amp;quot;:false,&amp;quot;dataAttributes&amp;quot;:[],&amp;quot;props&amp;quot;:{&amp;quot;zindex&amp;quot;:7},&amp;quot;lineStyle&amp;quot;:{&amp;quot;lineWidth&amp;quot;:1.5},&amp;quot;from&amp;quot;:{&amp;quot;x&amp;quot;:405,&amp;quot;y&amp;quot;:233,&amp;quot;angle&amp;quot;:4.71238898038469,&amp;quot;id&amp;quot;:&amp;quot;chOBSgmkIm394255&amp;quot;},&amp;quot;to&amp;quot;:{&amp;quot;id&amp;quot;:&amp;quot;fwUlENdxrz742047&amp;quot;,&amp;quot;x&amp;quot;:616,&amp;quot;y&amp;quot;:285,&amp;quot;angle&amp;quot;:0},&amp;quot;textBlock&amp;quot;:[{&amp;quot;text&amp;quot;:&amp;quot;发给后端&amp;quot;,&amp;quot;location&amp;quot;:0.5078740157480315}],&amp;quot;textPos&amp;quot;:{&amp;quot;x&amp;quot;:482.9,&amp;quot;y&amp;quot;:285,&amp;quot;t&amp;quot;:28}},{&amp;quot;id&amp;quot;:&amp;quot;fwUlENdxrz742047&amp;quot;,&amp;quot;name&amp;quot;:&amp;quot;process&amp;quot;,&amp;quot;title&amp;quot;:&amp;quot;流程&amp;quot;,&amp;quot;category&amp;quot;:&amp;quot;flow&amp;quot;,&amp;quot;group&amp;quot;:&amp;quot;&amp;quot;,&amp;quot;groupName&amp;quot;:null,&amp;quot;locked&amp;quot;:false,&amp;quot;link&amp;quot;:&amp;quot;&amp;quot;,&amp;quot;children&amp;quot;:[],&amp;quot;parent&amp;quot;:&amp;quot;&amp;quot;,&amp;quot;resizeDir&amp;quot;:[&amp;quot;tl&amp;quot;,&amp;quot;tr&amp;quot;,&amp;quot;br&amp;quot;,&amp;quot;bl&amp;quot;,&amp;quot;l&amp;quot;,&amp;quot;t&amp;quot;,&amp;quot;r&amp;quot;,&amp;quot;b&amp;quot;],&amp;quot;attribute&amp;quot;:{&amp;quot;container&amp;quot;:false,&amp;quot;visible&amp;quot;:true,&amp;quot;rotatable&amp;quot;:true,&amp;quot;linkable&amp;quot;:true,&amp;quot;collapsable&amp;quot;:false,&amp;quot;collapsed&amp;quot;:false,&amp;quot;fixedLink&amp;quot;:false,&amp;quot;markerOffset&amp;quot;:5},&amp;quot;dataAttributes&amp;quot;:[{&amp;quot;name&amp;quot;:&amp;quot;序号&amp;quot;,&amp;quot;type&amp;quot;:&amp;quot;number&amp;quot;,&amp;quot;value&amp;quot;:&amp;quot;&amp;quot;,&amp;quot;category&amp;quot;:&amp;quot;default&amp;quot;,&amp;quot;id&amp;quot;:&amp;quot;yyBkriWXQQ165326&amp;quot;},{&amp;quot;name&amp;quot;:&amp;quot;名称&amp;quot;,&amp;quot;type&amp;quot;:&amp;quot;string&amp;quot;,&amp;quot;value&amp;quot;:&amp;quot;&amp;quot;,&amp;quot;category&amp;quot;:&amp;quot;default&amp;quot;,&amp;quot;id&amp;quot;:&amp;quot;TIGMqqffDJ125935&amp;quot;},{&amp;quot;name&amp;quot;:&amp;quot;所有者&amp;quot;,&amp;quot;type&amp;quot;:&amp;quot;string&amp;quot;,&amp;quot;value&amp;quot;:&amp;quot;&amp;quot;,&amp;quot;category&amp;quot;:&amp;quot;default&amp;quot;,&amp;quot;id&amp;quot;:&amp;quot;CtTPZXZPUZ078354&amp;quot;},{&amp;quot;name&amp;quot;:&amp;quot;连接&amp;quot;,&amp;quot;type&amp;quot;:&amp;quot;link&amp;quot;,&amp;quot;value&amp;quot;:&amp;quot;&amp;quot;,&amp;quot;category&amp;quot;:&amp;quot;default&amp;quot;,&amp;quot;id&amp;quot;:&amp;quot;KVuNCGtdeH617153&amp;quot;},{&amp;quot;name&amp;quot;:&amp;quot;便笺&amp;quot;,&amp;quot;type&amp;quot;:&amp;quot;string&amp;quot;,&amp;quot;value&amp;quot;:&amp;quot;&amp;quot;,&amp;quot;category&amp;quot;:&amp;quot;default&amp;quot;,&amp;quot;id&amp;quot;:&amp;quot;bLVBJcQqNq197426&amp;quot;},{&amp;quot;name&amp;quot;:&amp;quot;成本&amp;quot;,&amp;quot;type&amp;quot;:&amp;quot;number&amp;quot;,&amp;quot;value&amp;quot;:&amp;quot;&amp;quot;,&amp;quot;category&amp;quot;:&amp;quot;default&amp;quot;,&amp;quot;id&amp;quot;:&amp;quot;vYwUwgodIV401769&amp;quot;},{&amp;quot;name&amp;quot;:&amp;quot;时间&amp;quot;,&amp;quot;type&amp;quot;:&amp;quot;number&amp;quot;,&amp;quot;value&amp;quot;:&amp;quot;&amp;quot;,&amp;quot;category&amp;quot;:&amp;quot;default&amp;quot;,&amp;quot;id&amp;quot;:&amp;quot;MvwPSnaExv166988&amp;quot;},{&amp;quot;name&amp;quot;:&amp;quot;部门&amp;quot;,&amp;quot;type&amp;quot;:&amp;quot;string&amp;quot;,&amp;quot;value&amp;quot;:&amp;quot;&amp;quot;,&amp;quot;category&amp;quot;:&amp;quot;default&amp;quot;,&amp;quot;id&amp;quot;:&amp;quot;OVFlAkVtGF160345&amp;quot;},{&amp;quot;name&amp;quot;:&amp;quot;输入&amp;quot;,&amp;quot;type&amp;quot;:&amp;quot;string&amp;quot;,&amp;quot;value&amp;quot;:&amp;quot;&amp;quot;,&amp;quot;category&amp;quot;:&amp;quot;default&amp;quot;,&amp;quot;id&amp;quot;:&amp;quot;TKXdSuSFlR782144&amp;quot;},{&amp;quot;name&amp;quot;:&amp;quot;输出&amp;quot;,&amp;quot;type&amp;quot;:&amp;quot;string&amp;quot;,&amp;quot;value&amp;quot;:&amp;quot;&amp;quot;,&amp;quot;category&amp;quot;:&amp;quot;default&amp;quot;,&amp;quot;id&amp;quot;:&amp;quot;xcODcWsgKP328070&amp;quot;},{&amp;quot;name&amp;quot;:&amp;quot;风险&amp;quot;,&amp;quot;type&amp;quot;:&amp;quot;string&amp;quot;,&amp;quot;value&amp;quot;:&amp;quot;&amp;quot;,&amp;quot;category&amp;quot;:&amp;quot;default&amp;quot;,&amp;quot;id&amp;quot;:&amp;quot;QxGzTLfwEG452600&amp;quot;},{&amp;quot;name&amp;quot;:&amp;quot;备注&amp;quot;,&amp;quot;type&amp;quot;:&amp;quot;string&amp;quot;,&amp;quot;value&amp;quot;:&amp;quot;&amp;quot;,&amp;quot;category&amp;quot;:&amp;quot;default&amp;quot;,&amp;quot;id&amp;quot;:&amp;quot;HHpGxKzFhQ170705&amp;quot;}],&amp;quot;props&amp;quot;:{&amp;quot;x&amp;quot;:616,&amp;quot;y&amp;quot;:253,&amp;quot;w&amp;quot;:191,&amp;quot;h&amp;quot;:64,&amp;quot;zindex&amp;quot;:8,&amp;quot;angle&amp;quot;:0},&amp;quot;shapeStyle&amp;quot;:{&amp;quot;alpha&amp;quot;:1},&amp;quot;lineStyle&amp;quot;:{&amp;quot;lineWidth&amp;quot;:1.5},&amp;quot;fillStyle&amp;quot;:{},&amp;quot;theme&amp;quot;:{},&amp;quot;path&amp;quot;:[{&amp;quot;actions&amp;quot;:[{&amp;quot;action&amp;quot;:&amp;quot;move&amp;quot;,&amp;quot;x&amp;quot;:&amp;quot;0&amp;quot;,&amp;quot;y&amp;quot;:&amp;quot;0&amp;quot;},{&amp;quot;action&amp;quot;:&amp;quot;line&amp;quot;,&amp;quot;x&amp;quot;:&amp;quot;w&amp;quot;,&amp;quot;y&amp;quot;:&amp;quot;0&amp;quot;},{&amp;quot;action&amp;quot;:&amp;quot;line&amp;quot;,&amp;quot;x&amp;quot;:&amp;quot;w&amp;quot;,&amp;quot;y&amp;quot;:&amp;quot;h&amp;quot;},{&amp;quot;action&amp;quot;:&amp;quot;line&amp;quot;,&amp;quot;x&amp;quot;:&amp;quot;0&amp;quot;,&amp;quot;y&amp;quot;:&amp;quot;h&amp;quot;},{&amp;quot;action&amp;quot;:&amp;quot;close&amp;quot;}]}],&amp;quot;fontStyle&amp;quot;:{},&amp;quot;textBlock&amp;quot;:[{&amp;quot;position&amp;quot;:{&amp;quot;x&amp;quot;:10,&amp;quot;y&amp;quot;:0,&amp;quot;w&amp;quot;:&amp;quot;w-20&amp;quot;,&amp;quot;h&amp;quot;:&amp;quot;h&amp;quot;},&amp;quot;text&amp;quot;:&amp;quot;后端用eData 和 iv 等解密获得手机号。&lt;div&gt;确认用户登录。&lt;br&gt;&lt;div&gt;生成Token&lt;/div&gt;&lt;/div&gt;&amp;quot;}],&amp;quot;anchors&amp;quot;:[{&amp;quot;x&amp;quot;:&amp;quot;w/2&amp;quot;,&amp;quot;y&amp;quot;:&amp;quot;0&amp;quot;},{&amp;quot;x&amp;quot;:&amp;quot;w/2&amp;quot;,&amp;quot;y&amp;quot;:&amp;quot;h&amp;quot;},{&amp;quot;x&amp;quot;:&amp;quot;0&amp;quot;,&amp;quot;y&amp;quot;:&amp;quot;h/2&amp;quot;},{&amp;quot;x&amp;quot;:&amp;quot;w&amp;quot;,&amp;quot;y&amp;quot;:&amp;quot;h/2&amp;quot;}]},{&amp;quot;id&amp;quot;:&amp;quot;KmeWKMOgFs198686&amp;quot;,&amp;quot;name&amp;quot;:&amp;quot;linker&amp;quot;,&amp;quot;text&amp;quot;:&amp;quot;将 token、过期时间、用户信息发给小程序端&amp;quot;,&amp;quot;group&amp;quot;:&amp;quot;&amp;quot;,&amp;quot;linkerType&amp;quot;:&amp;quot;broken&amp;quot;,&amp;quot;points&amp;quot;:[{&amp;quot;x&amp;quot;:711.5,&amp;quot;y&amp;quot;:365}],&amp;quot;locked&amp;quot;:false,&amp;quot;dataAttributes&amp;quot;:[],&amp;quot;props&amp;quot;:{&amp;quot;zindex&amp;quot;:9},&amp;quot;lineStyle&amp;quot;:{&amp;quot;lineWidth&amp;quot;:1.5},&amp;quot;from&amp;quot;:{&amp;quot;x&amp;quot;:711.5,&amp;quot;y&amp;quot;:317,&amp;quot;angle&amp;quot;:4.71238898038469,&amp;quot;id&amp;quot;:&amp;quot;fwUlENdxrz742047&amp;quot;},&amp;quot;to&amp;quot;:{&amp;quot;id&amp;quot;:&amp;quot;zvONNldSsb468943&amp;quot;,&amp;quot;x&amp;quot;:415,&amp;quot;y&amp;quot;:365,&amp;quot;angle&amp;quot;:3.1415926535897936},&amp;quot;textBlock&amp;quot;:[{&amp;quot;text&amp;quot;:&amp;quot;将 token、过期时间、用户信息发给小程序端&amp;quot;,&amp;quot;location&amp;quot;:0.5913978494623656}],&amp;quot;textPos&amp;quot;:{&amp;quot;x&amp;quot;:541.9250000000001,&amp;quot;y&amp;quot;:365,&amp;quot;t&amp;quot;:31}},{&amp;quot;id&amp;quot;:&amp;quot;zvONNldSsb468943&amp;quot;,&amp;quot;name&amp;quot;:&amp;quot;process&amp;quot;,&amp;quot;title&amp;quot;:&amp;quot;流程&amp;quot;,&amp;quot;category&amp;quot;:&amp;quot;flow&amp;quot;,&amp;quot;group&amp;quot;:&amp;quot;&amp;quot;,&amp;quot;groupName&amp;quot;:null,&amp;quot;locked&amp;quot;:false,&amp;quot;link&amp;quot;:&amp;quot;&amp;quot;,&amp;quot;children&amp;quot;:[],&amp;quot;parent&amp;quot;:&amp;quot;&amp;quot;,&amp;quot;resizeDir&amp;quot;:[&amp;quot;tl&amp;quot;,&amp;quot;tr&amp;quot;,&amp;quot;br&amp;quot;,&amp;quot;bl&amp;quot;,&amp;quot;l&amp;quot;,&amp;quot;t&amp;quot;,&amp;quot;r&amp;quot;,&amp;quot;b&amp;quot;],&amp;quot;attribute&amp;quot;:{&amp;quot;container&amp;quot;:false,&amp;quot;visible&amp;quot;:true,&amp;quot;rotatable&amp;quot;:true,&amp;quot;linkable&amp;quot;:true,&amp;quot;collapsable&amp;quot;:false,&amp;quot;collapsed&amp;quot;:false,&amp;quot;fixedLink&amp;quot;:false,&amp;quot;markerOffset&amp;quot;:5},&amp;quot;dataAttributes&amp;quot;:[{&amp;quot;name&amp;quot;:&amp;quot;序号&amp;quot;,&amp;quot;type&amp;quot;:&amp;quot;number&amp;quot;,&amp;quot;value&amp;quot;:&amp;quot;&amp;quot;,&amp;quot;category&amp;quot;:&amp;quot;default&amp;quot;,&amp;quot;id&amp;quot;:&amp;quot;HsxcfgTTEH226177&amp;quot;},{&amp;quot;name&amp;quot;:&amp;quot;名称&amp;quot;,&amp;quot;type&amp;quot;:&amp;quot;string&amp;quot;,&amp;quot;value&amp;quot;:&amp;quot;&amp;quot;,&amp;quot;category&amp;quot;:&amp;quot;default&amp;quot;,&amp;quot;id&amp;quot;:&amp;quot;bJPniRgiZW616546&amp;quot;},{&amp;quot;name&amp;quot;:&amp;quot;所有者&amp;quot;,&amp;quot;type&amp;quot;:&amp;quot;string&amp;quot;,&amp;quot;value&amp;quot;:&amp;quot;&amp;quot;,&amp;quot;category&amp;quot;:&amp;quot;default&amp;quot;,&amp;quot;id&amp;quot;:&amp;quot;KPUHOaIRnX842223&amp;quot;},{&amp;quot;name&amp;quot;:&amp;quot;连接&amp;quot;,&amp;quot;type&amp;quot;:&amp;quot;link&amp;quot;,&amp;quot;value&amp;quot;:&amp;quot;&amp;quot;,&amp;quot;category&amp;quot;:&amp;quot;default&amp;quot;,&amp;quot;id&amp;quot;:&amp;quot;LELqzqJFIa105462&amp;quot;},{&amp;quot;name&amp;quot;:&amp;quot;便笺&amp;quot;,&amp;quot;type&amp;quot;:&amp;quot;string&amp;quot;,&amp;quot;value&amp;quot;:&amp;quot;&amp;quot;,&amp;quot;category&amp;quot;:&amp;quot;default&amp;quot;,&amp;quot;id&amp;quot;:&amp;quot;DmyeWVEjZR492441&amp;quot;},{&amp;quot;name&amp;quot;:&amp;quot;成本&amp;quot;,&amp;quot;type&amp;quot;:&amp;quot;number&amp;quot;,&amp;quot;value&amp;quot;:&amp;quot;&amp;quot;,&amp;quot;category&amp;quot;:&amp;quot;default&amp;quot;,&amp;quot;id&amp;quot;:&amp;quot;JCsbVYPThk674058&amp;quot;},{&amp;quot;name&amp;quot;:&amp;quot;时间&amp;quot;,&amp;quot;type&amp;quot;:&amp;quot;number&amp;quot;,&amp;quot;value&amp;quot;:&amp;quot;&amp;quot;,&amp;quot;category&amp;quot;:&amp;quot;default&amp;quot;,&amp;quot;id&amp;quot;:&amp;quot;JjoSBsNaqV196895&amp;quot;},{&amp;quot;name&amp;quot;:&amp;quot;部门&amp;quot;,&amp;quot;type&amp;quot;:&amp;quot;string&amp;quot;,&amp;quot;value&amp;quot;:&amp;quot;&amp;quot;,&amp;quot;category&amp;quot;:&amp;quot;default&amp;quot;,&amp;quot;id&amp;quot;:&amp;quot;xDhFvLbZKH971701&amp;quot;},{&amp;quot;name&amp;quot;:&amp;quot;输入&amp;quot;,&amp;quot;type&amp;quot;:&amp;quot;string&amp;quot;,&amp;quot;value&amp;quot;:&amp;quot;&amp;quot;,&amp;quot;category&amp;quot;:&amp;quot;default&amp;quot;,&amp;quot;id&amp;quot;:&amp;quot;illIHfbAVT704220&amp;quot;},{&amp;quot;name&amp;quot;:&amp;quot;输出&amp;quot;,&amp;quot;type&amp;quot;:&amp;quot;string&amp;quot;,&amp;quot;value&amp;quot;:&amp;quot;&amp;quot;,&amp;quot;category&amp;quot;:&amp;quot;default&amp;quot;,&amp;quot;id&amp;quot;:&amp;quot;utvFuaLUGS840371&amp;quot;},{&amp;quot;name&amp;quot;:&amp;quot;风险&amp;quot;,&amp;quot;type&amp;quot;:&amp;quot;string&amp;quot;,&amp;quot;value&amp;quot;:&amp;quot;&amp;quot;,&amp;quot;category&amp;quot;:&amp;quot;default&amp;quot;,&amp;quot;id&amp;quot;:&amp;quot;ZZnIngvuBF984741&amp;quot;},{&amp;quot;name&amp;quot;:&amp;quot;备注&amp;quot;,&amp;quot;type&amp;quot;:&amp;quot;string&amp;quot;,&amp;quot;value&amp;quot;:&amp;quot;&amp;quot;,&amp;quot;category&amp;quot;:&amp;quot;default&amp;quot;,&amp;quot;id&amp;quot;:&amp;quot;cfdatyGmcj122109&amp;quot;}],&amp;quot;props&amp;quot;:{&amp;quot;x&amp;quot;:308,&amp;quot;y&amp;quot;:332,&amp;quot;w&amp;quot;:107,&amp;quot;h&amp;quot;:66,&amp;quot;zindex&amp;quot;:10,&amp;quot;angle&amp;quot;:0},&amp;quot;shapeStyle&amp;quot;:{&amp;quot;alpha&amp;quot;:1},&amp;quot;lineStyle&amp;quot;:{&amp;quot;lineWidth&amp;quot;:1.5},&amp;quot;fillStyle&amp;quot;:{},&amp;quot;theme&amp;quot;:{},&amp;quot;path&amp;quot;:[{&amp;quot;actions&amp;quot;:[{&amp;quot;action&amp;quot;:&amp;quot;move&amp;quot;,&amp;quot;x&amp;quot;:&amp;quot;0&amp;quot;,&amp;quot;y&amp;quot;:&amp;quot;0&amp;quot;},{&amp;quot;action&amp;quot;:&amp;quot;line&amp;quot;,&amp;quot;x&amp;quot;:&amp;quot;w&amp;quot;,&amp;quot;y&amp;quot;:&amp;quot;0&amp;quot;},{&amp;quot;action&amp;quot;:&amp;quot;line&amp;quot;,&amp;quot;x&amp;quot;:&amp;quot;w&amp;quot;,&amp;quot;y&amp;quot;:&amp;quot;h&amp;quot;},{&amp;quot;action&amp;quot;:&amp;quot;line&amp;quot;,&amp;quot;x&amp;quot;:&amp;quot;0&amp;quot;,&amp;quot;y&amp;quot;:&amp;quot;h&amp;quot;},{&amp;quot;action&amp;quot;:&amp;quot;close&amp;quot;}]}],&amp;quot;fontStyle&amp;quot;:{},&amp;quot;textBlock&amp;quot;:[{&amp;quot;position&amp;quot;:{&amp;quot;x&amp;quot;:10,&amp;quot;y&amp;quot;:0,&amp;quot;w&amp;quot;:&amp;quot;w-20&amp;quot;,&amp;quot;h&amp;quot;:&amp;quot;h&amp;quot;},&amp;quot;text&amp;quot;:&amp;quot;小程序展示登录成功状态&amp;quot;}],&amp;quot;anchors&amp;quot;:[{&amp;quot;x&amp;quot;:&amp;quot;w/2&amp;quot;,&amp;quot;y&amp;quot;:&amp;quot;0&amp;quot;},{&amp;quot;x&amp;quot;:&amp;quot;w/2&amp;quot;,&amp;quot;y&amp;quot;:&amp;quot;h&amp;quot;},{&amp;quot;x&amp;quot;:&amp;quot;0&amp;quot;,&amp;quot;y&amp;quot;:&amp;quot;h/2&amp;quot;},{&amp;quot;x&amp;quot;:&amp;quot;w&amp;quot;,&amp;quot;y&amp;quot;:&amp;quot;h/2&amp;quot;}]},{&amp;quot;id&amp;quot;:&amp;quot;ioDeDlARAG933927&amp;quot;,&amp;quot;name&amp;quot;:&amp;quot;linker&amp;quot;,&amp;quot;text&amp;quot;:&amp;quot;......&amp;quot;,&amp;quot;group&amp;quot;:&amp;quot;&amp;quot;,&amp;quot;linkerType&amp;quot;:&amp;quot;broken&amp;quot;,&amp;quot;points&amp;quot;:[{&amp;quot;x&amp;quot;:361.5,&amp;quot;y&amp;quot;:428.5},{&amp;quot;x&amp;quot;:361.5,&amp;quot;y&amp;quot;:428.5}],&amp;quot;locked&amp;quot;:false,&amp;quot;dataAttributes&amp;quot;:[],&amp;quot;props&amp;quot;:{&amp;quot;zindex&amp;quot;:11},&amp;quot;lineStyle&amp;quot;:{&amp;quot;lineWidth&amp;quot;:1.5},&amp;quot;from&amp;quot;:{&amp;quot;x&amp;quot;:361.5,&amp;quot;y&amp;quot;:398,&amp;quot;angle&amp;quot;:4.71238898038469,&amp;quot;id&amp;quot;:&amp;quot;zvONNldSsb468943&amp;quot;},&amp;quot;to&amp;quot;:{&amp;quot;id&amp;quot;:&amp;quot;cTeziLiKFI160363&amp;quot;,&amp;quot;x&amp;quot;:361.5,&amp;quot;y&amp;quot;:459,&amp;quot;angle&amp;quot;:1.5707963267948963},&amp;quot;textBlock&amp;quot;:[{&amp;quot;text&amp;quot;:&amp;quot;......&amp;quot;,&amp;quot;location&amp;quot;:0.3442622950819672}],&amp;quot;textPos&amp;quot;:{&amp;quot;x&amp;quot;:361.5,&amp;quot;y&amp;quot;:419,&amp;quot;t&amp;quot;:14}},{&amp;quot;id&amp;quot;:&amp;quot;cTeziLiKFI160363&amp;quot;,&amp;quot;name&amp;quot;:&amp;quot;process&amp;quot;,&amp;quot;title&amp;quot;:&amp;quot;流程&amp;quot;,&amp;quot;category&amp;quot;:&amp;quot;flow&amp;quot;,&amp;quot;group&amp;quot;:&amp;quot;&amp;quot;,&amp;quot;groupName&amp;quot;:null,&amp;quot;locked&amp;quot;:false,&amp;quot;link&amp;quot;:&amp;quot;&amp;quot;,&amp;quot;children&amp;quot;:[],&amp;quot;parent&amp;quot;:&amp;quot;&amp;quot;,&amp;quot;resizeDir&amp;quot;:[&amp;quot;tl&amp;quot;,&amp;quot;tr&amp;quot;,&amp;quot;br&amp;quot;,&amp;quot;bl&amp;quot;,&amp;quot;l&amp;quot;,&amp;quot;t&amp;quot;,&amp;quot;r&amp;quot;,&amp;quot;b&amp;quot;],&amp;quot;attribute&amp;quot;:{&amp;quot;container&amp;quot;:false,&amp;quot;visible&amp;quot;:true,&amp;quot;rotatable&amp;quot;:true,&amp;quot;linkable&amp;quot;:true,&amp;quot;collapsable&amp;quot;:false,&amp;quot;collapsed&amp;quot;:false,&amp;quot;fixedLink&amp;quot;:false,&amp;quot;markerOffset&amp;quot;:5},&amp;quot;dataAttributes&amp;quot;:[{&amp;quot;name&amp;quot;:&amp;quot;序号&amp;quot;,&amp;quot;type&amp;quot;:&amp;quot;number&amp;quot;,&amp;quot;value&amp;quot;:&amp;quot;&amp;quot;,&amp;quot;category&amp;quot;:&amp;quot;default&amp;quot;,&amp;quot;id&amp;quot;:&amp;quot;iAbTfQrLTz412172&amp;quot;},{&amp;quot;name&amp;quot;:&amp;quot;名称&amp;quot;,&amp;quot;type&amp;quot;:&amp;quot;string&amp;quot;,&amp;quot;value&amp;quot;:&amp;quot;&amp;quot;,&amp;quot;category&amp;quot;:&amp;quot;default&amp;quot;,&amp;quot;id&amp;quot;:&amp;quot;UxVlcVXpCd478944&amp;quot;},{&amp;quot;name&amp;quot;:&amp;quot;所有者&amp;quot;,&amp;quot;type&amp;quot;:&amp;quot;string&amp;quot;,&amp;quot;value&amp;quot;:&amp;quot;&amp;quot;,&amp;quot;category&amp;quot;:&amp;quot;default&amp;quot;,&amp;quot;id&amp;quot;:&amp;quot;zfGwoKvPAy834770&amp;quot;},{&amp;quot;name&amp;quot;:&amp;quot;连接&amp;quot;,&amp;quot;type&amp;quot;:&amp;quot;link&amp;quot;,&amp;quot;value&amp;quot;:&amp;quot;&amp;quot;,&amp;quot;category&amp;quot;:&amp;quot;default&amp;quot;,&amp;quot;id&amp;quot;:&amp;quot;RtoHZriOft153910&amp;quot;},{&amp;quot;name&amp;quot;:&amp;quot;便笺&amp;quot;,&amp;quot;type&amp;quot;:&amp;quot;string&amp;quot;,&amp;quot;value&amp;quot;:&amp;quot;&amp;quot;,&amp;quot;category&amp;quot;:&amp;quot;default&amp;quot;,&amp;quot;id&amp;quot;:&amp;quot;aGlnBKkrVZ772765&amp;quot;},{&amp;quot;name&amp;quot;:&amp;quot;成本&amp;quot;,&amp;quot;type&amp;quot;:&amp;quot;number&amp;quot;,&amp;quot;value&amp;quot;:&amp;quot;&amp;quot;,&amp;quot;category&amp;quot;:&amp;quot;default&amp;quot;,&amp;quot;id&amp;quot;:&amp;quot;HiPkAxXsql297290&amp;quot;},{&amp;quot;name&amp;quot;:&amp;quot;时间&amp;quot;,&amp;quot;type&amp;quot;:&amp;quot;number&amp;quot;,&amp;quot;value&amp;quot;:&amp;quot;&amp;quot;,&amp;quot;category&amp;quot;:&amp;quot;default&amp;quot;,&amp;quot;id&amp;quot;:&amp;quot;zxAGAAxgZB093526&amp;quot;},{&amp;quot;name&amp;quot;:&amp;quot;部门&amp;quot;,&amp;quot;type&amp;quot;:&amp;quot;string&amp;quot;,&amp;quot;value&amp;quot;:&amp;quot;&amp;quot;,&amp;quot;category&amp;quot;:&amp;quot;default&amp;quot;,&amp;quot;id&amp;quot;:&amp;quot;CpauPDUWKm027591&amp;quot;},{&amp;quot;name&amp;quot;:&amp;quot;输入&amp;quot;,&amp;quot;type&amp;quot;:&amp;quot;string&amp;quot;,&amp;quot;value&amp;quot;:&amp;quot;&amp;quot;,&amp;quot;category&amp;quot;:&amp;quot;default&amp;quot;,&amp;quot;id&amp;quot;:&amp;quot;tANorsHAsb653233&amp;quot;},{&amp;quot;name&amp;quot;:&amp;quot;输出&amp;quot;,&amp;quot;type&amp;quot;:&amp;quot;string&amp;quot;,&amp;quot;value&amp;quot;:&amp;quot;&amp;quot;,&amp;quot;category&amp;quot;:&amp;quot;default&amp;quot;,&amp;quot;id&amp;quot;:&amp;quot;ViaPuuSFEy241400&amp;quot;},{&amp;quot;name&amp;quot;:&amp;quot;风险&amp;quot;,&amp;quot;type&amp;quot;:&amp;quot;string&amp;quot;,&amp;quot;value&amp;quot;:&amp;quot;&amp;quot;,&amp;quot;category&amp;quot;:&amp;quot;default&amp;quot;,&amp;quot;id&amp;quot;:&amp;quot;oNTvWLXwJr039882&amp;quot;},{&amp;quot;name&amp;quot;:&amp;quot;备注&amp;quot;,&amp;quot;type&amp;quot;:&amp;quot;string&amp;quot;,&amp;quot;value&amp;quot;:&amp;quot;&amp;quot;,&amp;quot;category&amp;quot;:&amp;quot;default&amp;quot;,&amp;quot;id&amp;quot;:&amp;quot;MFaWBcIuVK880252&amp;quot;}],&amp;quot;props&amp;quot;:{&amp;quot;x&amp;quot;:308,&amp;quot;y&amp;quot;:459,&amp;quot;w&amp;quot;:107,&amp;quot;h&amp;quot;:70,&amp;quot;zindex&amp;quot;:12,&amp;quot;angle&amp;quot;:0},&amp;quot;shapeStyle&amp;quot;:{&amp;quot;alpha&amp;quot;:1},&amp;quot;lineStyle&amp;quot;:{&amp;quot;lineWidth&amp;quot;:1.5},&amp;quot;fillStyle&amp;quot;:{},&amp;quot;theme&amp;quot;:{},&amp;quot;path&amp;quot;:[{&amp;quot;actions&amp;quot;:[{&amp;quot;action&amp;quot;:&amp;quot;move&amp;quot;,&amp;quot;x&amp;quot;:&amp;quot;0&amp;quot;,&amp;quot;y&amp;quot;:&amp;quot;0&amp;quot;},{&amp;quot;action&amp;quot;:&amp;quot;line&amp;quot;,&amp;quot;x&amp;quot;:&amp;quot;w&amp;quot;,&amp;quot;y&amp;quot;:&amp;quot;0&amp;quot;},{&amp;quot;action&amp;quot;:&amp;quot;line&amp;quot;,&amp;quot;x&amp;quot;:&amp;quot;w&amp;quot;,&amp;quot;y&amp;quot;:&amp;quot;h&amp;quot;},{&amp;quot;action&amp;quot;:&amp;quot;line&amp;quot;,&amp;quot;x&amp;quot;:&amp;quot;0&amp;quot;,&amp;quot;y&amp;quot;:&amp;quot;h&amp;quot;},{&amp;quot;action&amp;quot;:&amp;quot;close&amp;quot;}]}],&amp;quot;fontStyle&amp;quot;:{},&amp;quot;textBlock&amp;quot;:[{&amp;quot;position&amp;quot;:{&amp;quot;x&amp;quot;:10,&amp;quot;y&amp;quot;:0,&amp;quot;w&amp;quot;:&amp;quot;w-20&amp;quot;,&amp;quot;h&amp;quot;:&amp;quot;h&amp;quot;},&amp;quot;text&amp;quot;:&amp;quot;用户点击退出登录&lt;div&gt;小程序清除所有登录信息&lt;/div&gt;&amp;quot;}],&amp;quot;anchors&amp;quot;:[{&amp;quot;x&amp;quot;:&amp;quot;w/2&amp;quot;,&amp;quot;y&amp;quot;:&amp;quot;0&amp;quot;},{&amp;quot;x&amp;quot;:&amp;quot;w/2&amp;quot;,&amp;quot;y&amp;quot;:&amp;quot;h&amp;quot;},{&amp;quot;x&amp;quot;:&amp;quot;0&amp;quot;,&amp;quot;y&amp;quot;:&amp;quot;h/2&amp;quot;},{&amp;quot;x&amp;quot;:&amp;quot;w&amp;quot;,&amp;quot;y&amp;quot;:&amp;quot;h/2&amp;quot;}]},{&amp;quot;id&amp;quot;:&amp;quot;tmgxYGUAKl380237&amp;quot;,&amp;quot;name&amp;quot;:&amp;quot;linker&amp;quot;,&amp;quot;text&amp;quot;:&amp;quot;将Token等发送给后端&amp;quot;,&amp;quot;group&amp;quot;:&amp;quot;&amp;quot;,&amp;quot;linkerType&amp;quot;:&amp;quot;broken&amp;quot;,&amp;quot;points&amp;quot;:[{&amp;quot;x&amp;quot;:361.5,&amp;quot;y&amp;quot;:546}],&amp;quot;locked&amp;quot;:false,&amp;quot;dataAttributes&amp;quot;:[],&amp;quot;props&amp;quot;:{&amp;quot;zindex&amp;quot;:13},&amp;quot;lineStyle&amp;quot;:{&amp;quot;lineWidth&amp;quot;:1.5},&amp;quot;from&amp;quot;:{&amp;quot;x&amp;quot;:361.5,&amp;quot;y&amp;quot;:529,&amp;quot;id&amp;quot;:&amp;quot;cTeziLiKFI160363&amp;quot;,&amp;quot;angle&amp;quot;:4.71238898038469},&amp;quot;to&amp;quot;:{&amp;quot;id&amp;quot;:&amp;quot;YyvOuykASx088054&amp;quot;,&amp;quot;x&amp;quot;:629,&amp;quot;y&amp;quot;:546,&amp;quot;angle&amp;quot;:0},&amp;quot;textBlock&amp;quot;:[{&amp;quot;text&amp;quot;:&amp;quot;将Token等发送给后端&amp;quot;,&amp;quot;location&amp;quot;:0.5207207207207207}],&amp;quot;textPos&amp;quot;:{&amp;quot;x&amp;quot;:495.24999999999994,&amp;quot;y&amp;quot;:550,&amp;quot;t&amp;quot;:30}},{&amp;quot;id&amp;quot;:&amp;quot;YyvOuykASx088054&amp;quot;,&amp;quot;name&amp;quot;:&amp;quot;process&amp;quot;,&amp;quot;title&amp;quot;:&amp;quot;流程&amp;quot;,&amp;quot;category&amp;quot;:&amp;quot;flow&amp;quot;,&amp;quot;group&amp;quot;:&amp;quot;&amp;quot;,&amp;quot;groupName&amp;quot;:null,&amp;quot;locked&amp;quot;:false,&amp;quot;link&amp;quot;:&amp;quot;&amp;quot;,&amp;quot;children&amp;quot;:[],&amp;quot;parent&amp;quot;:&amp;quot;&amp;quot;,&amp;quot;resizeDir&amp;quot;:[&amp;quot;tl&amp;quot;,&amp;quot;tr&amp;quot;,&amp;quot;br&amp;quot;,&amp;quot;bl&amp;quot;,&amp;quot;l&amp;quot;,&amp;quot;t&amp;quot;,&amp;quot;r&amp;quot;,&amp;quot;b&amp;quot;],&amp;quot;attribute&amp;quot;:{&amp;quot;container&amp;quot;:false,&amp;quot;visible&amp;quot;:true,&amp;quot;rotatable&amp;quot;:true,&amp;quot;linkable&amp;quot;:true,&amp;quot;collapsable&amp;quot;:false,&amp;quot;collapsed&amp;quot;:false,&amp;quot;fixedLink&amp;quot;:false,&amp;quot;markerOffset&amp;quot;:5},&amp;quot;dataAttributes&amp;quot;:[{&amp;quot;name&amp;quot;:&amp;quot;序号&amp;quot;,&amp;quot;type&amp;quot;:&amp;quot;number&amp;quot;,&amp;quot;value&amp;quot;:&amp;quot;&amp;quot;,&amp;quot;category&amp;quot;:&amp;quot;default&amp;quot;,&amp;quot;id&amp;quot;:&amp;quot;RcOkfXCMeQ092151&amp;quot;},{&amp;quot;name&amp;quot;:&amp;quot;名称&amp;quot;,&amp;quot;type&amp;quot;:&amp;quot;string&amp;quot;,&amp;quot;value&amp;quot;:&amp;quot;&amp;quot;,&amp;quot;category&amp;quot;:&amp;quot;default&amp;quot;,&amp;quot;id&amp;quot;:&amp;quot;mjRfVDqVmg161558&amp;quot;},{&amp;quot;name&amp;quot;:&amp;quot;所有者&amp;quot;,&amp;quot;type&amp;quot;:&amp;quot;string&amp;quot;,&amp;quot;value&amp;quot;:&amp;quot;&amp;quot;,&amp;quot;category&amp;quot;:&amp;quot;default&amp;quot;,&amp;quot;id&amp;quot;:&amp;quot;YxjZMXOmIz936855&amp;quot;},{&amp;quot;name&amp;quot;:&amp;quot;连接&amp;quot;,&amp;quot;type&amp;quot;:&amp;quot;link&amp;quot;,&amp;quot;value&amp;quot;:&amp;quot;&amp;quot;,&amp;quot;category&amp;quot;:&amp;quot;default&amp;quot;,&amp;quot;id&amp;quot;:&amp;quot;ADFLenazVa085373&amp;quot;},{&amp;quot;name&amp;quot;:&amp;quot;便笺&amp;quot;,&amp;quot;type&amp;quot;:&amp;quot;string&amp;quot;,&amp;quot;value&amp;quot;:&amp;quot;&amp;quot;,&amp;quot;category&amp;quot;:&amp;quot;default&amp;quot;,&amp;quot;id&amp;quot;:&amp;quot;QUAQOhYLag889093&amp;quot;},{&amp;quot;name&amp;quot;:&amp;quot;成本&amp;quot;,&amp;quot;type&amp;quot;:&amp;quot;number&amp;quot;,&amp;quot;value&amp;quot;:&amp;quot;&amp;quot;,&amp;quot;category&amp;quot;:&amp;quot;default&amp;quot;,&amp;quot;id&amp;quot;:&amp;quot;LOkmJrMOBV440724&amp;quot;},{&amp;quot;name&amp;quot;:&amp;quot;时间&amp;quot;,&amp;quot;type&amp;quot;:&amp;quot;number&amp;quot;,&amp;quot;value&amp;quot;:&amp;quot;&amp;quot;,&amp;quot;category&amp;quot;:&amp;quot;default&amp;quot;,&amp;quot;id&amp;quot;:&amp;quot;NrhMzSWmPq087178&amp;quot;},{&amp;quot;name&amp;quot;:&amp;quot;部门&amp;quot;,&amp;quot;type&amp;quot;:&amp;quot;string&amp;quot;,&amp;quot;value&amp;quot;:&amp;quot;&amp;quot;,&amp;quot;category&amp;quot;:&amp;quot;default&amp;quot;,&amp;quot;id&amp;quot;:&amp;quot;SfkADtQipq179446&amp;quot;},{&amp;quot;name&amp;quot;:&amp;quot;输入&amp;quot;,&amp;quot;type&amp;quot;:&amp;quot;string&amp;quot;,&amp;quot;value&amp;quot;:&amp;quot;&amp;quot;,&amp;quot;category&amp;quot;:&amp;quot;default&amp;quot;,&amp;quot;id&amp;quot;:&amp;quot;vJObVbTJyW075173&amp;quot;},{&amp;quot;name&amp;quot;:&amp;quot;输出&amp;quot;,&amp;quot;type&amp;quot;:&amp;quot;string&amp;quot;,&amp;quot;value&amp;quot;:&amp;quot;&amp;quot;,&amp;quot;category&amp;quot;:&amp;quot;default&amp;quot;,&amp;quot;id&amp;quot;:&amp;quot;kYkevbiqpA420964&amp;quot;},{&amp;quot;name&amp;quot;:&amp;quot;风险&amp;quot;,&amp;quot;type&amp;quot;:&amp;quot;string&amp;quot;,&amp;quot;value&amp;quot;:&amp;quot;&amp;quot;,&amp;quot;category&amp;quot;:&amp;quot;default&amp;quot;,&amp;quot;id&amp;quot;:&amp;quot;ZxvqSOtbbd996473&amp;quot;},{&amp;quot;name&amp;quot;:&amp;quot;备注&amp;quot;,&amp;quot;type&amp;quot;:&amp;quot;string&amp;quot;,&amp;quot;value&amp;quot;:&amp;quot;&amp;quot;,&amp;quot;category&amp;quot;:&amp;quot;default&amp;quot;,&amp;quot;id&amp;quot;:&amp;quot;LnvoAnWGdG294868&amp;quot;}],&amp;quot;props&amp;quot;:{&amp;quot;x&amp;quot;:629,&amp;quot;y&amp;quot;:529,&amp;quot;w&amp;quot;:178,&amp;quot;h&amp;quot;:34,&amp;quot;zindex&amp;quot;:14,&amp;quot;angle&amp;quot;:0},&amp;quot;shapeStyle&amp;quot;:{&amp;quot;alpha&amp;quot;:1},&amp;quot;lineStyle&amp;quot;:{&amp;quot;lineWidth&amp;quot;:1.5},&amp;quot;fillStyle&amp;quot;:{},&amp;quot;theme&amp;quot;:{},&amp;quot;path&amp;quot;:[{&amp;quot;actions&amp;quot;:[{&amp;quot;action&amp;quot;:&amp;quot;move&amp;quot;,&amp;quot;x&amp;quot;:&amp;quot;0&amp;quot;,&amp;quot;y&amp;quot;:&amp;quot;0&amp;quot;},{&amp;quot;action&amp;quot;:&amp;quot;line&amp;quot;,&amp;quot;x&amp;quot;:&amp;quot;w&amp;quot;,&amp;quot;y&amp;quot;:&amp;quot;0&amp;quot;},{&amp;quot;action&amp;quot;:&amp;quot;line&amp;quot;,&amp;quot;x&amp;quot;:&amp;quot;w&amp;quot;,&amp;quot;y&amp;quot;:&amp;quot;h&amp;quot;},{&amp;quot;action&amp;quot;:&amp;quot;line&amp;quot;,&amp;quot;x&amp;quot;:&amp;quot;0&amp;quot;,&amp;quot;y&amp;quot;:&amp;quot;h&amp;quot;},{&amp;quot;action&amp;quot;:&amp;quot;close&amp;quot;}]}],&amp;quot;fontStyle&amp;quot;:{},&amp;quot;textBlock&amp;quot;:[{&amp;quot;position&amp;quot;:{&amp;quot;x&amp;quot;:10,&amp;quot;y&amp;quot;:0,&amp;quot;w&amp;quot;:&amp;quot;w-20&amp;quot;,&amp;quot;h&amp;quot;:&amp;quot;h&amp;quot;},&amp;quot;text&amp;quot;:&amp;quot;记录退出信息等&amp;quot;}],&amp;quot;anchors&amp;quot;:[{&amp;quot;x&amp;quot;:&amp;quot;w/2&amp;quot;,&amp;quot;y&amp;quot;:&amp;quot;0&amp;quot;},{&amp;quot;x&amp;quot;:&amp;quot;w/2&amp;quot;,&amp;quot;y&amp;quot;:&amp;quot;h&amp;quot;},{&amp;quot;x&amp;quot;:&amp;quot;0&amp;quot;,&amp;quot;y&amp;quot;:&amp;quot;h/2&amp;quot;},{&amp;quot;x&amp;quot;:&amp;quot;w&amp;quot;,&amp;quot;y&amp;quot;:&amp;quot;h/2&amp;quot;}]}],&amp;quot;client&amp;quot;:&amp;quot;1700989328384vtzvsXbsvK894159&amp;quot;}&quot; data-t=&quot;flow&quot;&gt; &lt;/div&gt;" style="text;whiteSpace=wrap;html=1;" vertex="1" parent="1">
          <mxGeometry x="440" y="200" width="30" height="20" as="geometry" />
        </mxCell>
        <mxCell id="ezKRabk0gYsE68m_MMmU-11" style="edgeStyle=orthogonalEdgeStyle;rounded=0;orthogonalLoop=1;jettySize=auto;html=1;entryX=1;entryY=0.5;entryDx=0;entryDy=0;" edge="1" parent="1" source="ezKRabk0gYsE68m_MMmU-4" target="ezKRabk0gYsE68m_MMmU-9">
          <mxGeometry relative="1" as="geometry">
            <Array as="points">
              <mxPoint x="490" y="270" />
            </Array>
          </mxGeometry>
        </mxCell>
        <mxCell id="ezKRabk0gYsE68m_MMmU-4" value="后端用code向微信服务器换取session&amp;nbsp;key和openid、unionid" style="rounded=0;whiteSpace=wrap;html=1;" vertex="1" parent="1">
          <mxGeometry x="474" y="130" width="166" height="60" as="geometry" />
        </mxCell>
        <mxCell id="ezKRabk0gYsE68m_MMmU-5" value="" style="endArrow=none;dashed=1;html=1;rounded=0;" edge="1" parent="1">
          <mxGeometry width="50" height="50" relative="1" as="geometry">
            <mxPoint x="380" y="670" as="sourcePoint" />
            <mxPoint x="380" y="10" as="targetPoint" />
          </mxGeometry>
        </mxCell>
        <mxCell id="ezKRabk0gYsE68m_MMmU-6" value="小程序端" style="text;html=1;align=center;verticalAlign=middle;resizable=0;points=[];autosize=1;strokeColor=none;fillColor=none;fontColor=#FF3333;labelBackgroundColor=none;labelBorderColor=default;fontSize=23;" vertex="1" parent="1">
          <mxGeometry x="190" y="40" width="120" height="40" as="geometry" />
        </mxCell>
        <mxCell id="ezKRabk0gYsE68m_MMmU-7" value="服务器端" style="text;html=1;align=center;verticalAlign=middle;resizable=0;points=[];autosize=1;strokeColor=none;fillColor=none;labelBorderColor=default;fontColor=#FF3333;fontSize=23;" vertex="1" parent="1">
          <mxGeometry x="460" y="40" width="120" height="40" as="geometry" />
        </mxCell>
        <mxCell id="ezKRabk0gYsE68m_MMmU-17" style="edgeStyle=orthogonalEdgeStyle;rounded=0;orthogonalLoop=1;jettySize=auto;html=1;entryX=0;entryY=0.5;entryDx=0;entryDy=0;" edge="1" parent="1" source="ezKRabk0gYsE68m_MMmU-9" target="ezKRabk0gYsE68m_MMmU-13">
          <mxGeometry relative="1" as="geometry">
            <Array as="points">
              <mxPoint x="220" y="360" />
            </Array>
          </mxGeometry>
        </mxCell>
        <mxCell id="ezKRabk0gYsE68m_MMmU-9" value="用户点击小程序里的选择手机号授权按钮，&lt;div style=&quot;resize: none; outline: none; font-size: 13px; color: rgb(50, 50, 50); font-family: &amp;quot;Microsoft YaHei&amp;quot;, 微软雅黑, Arial;&quot;&gt;调用getPhoneNumber获取encryptedData&amp;nbsp;和&amp;nbsp;iv&lt;/div&gt;&lt;div data-processon-v=&quot;{&amp;quot;list&amp;quot;:[{&amp;quot;id&amp;quot;:&amp;quot;chOBSgmkIm394255&amp;quot;,&amp;quot;name&amp;quot;:&amp;quot;rectangle&amp;quot;,&amp;quot;title&amp;quot;:&amp;quot;矩形&amp;quot;,&amp;quot;category&amp;quot;:&amp;quot;basic&amp;quot;,&amp;quot;group&amp;quot;:&amp;quot;&amp;quot;,&amp;quot;groupName&amp;quot;:null,&amp;quot;locked&amp;quot;:false,&amp;quot;link&amp;quot;:&amp;quot;&amp;quot;,&amp;quot;children&amp;quot;:[],&amp;quot;parent&amp;quot;:&amp;quot;&amp;quot;,&amp;quot;resizeDir&amp;quot;:[&amp;quot;tl&amp;quot;,&amp;quot;tr&amp;quot;,&amp;quot;br&amp;quot;,&amp;quot;bl&amp;quot;,&amp;quot;l&amp;quot;,&amp;quot;t&amp;quot;,&amp;quot;r&amp;quot;,&amp;quot;b&amp;quot;],&amp;quot;attribute&amp;quot;:{&amp;quot;container&amp;quot;:false,&amp;quot;visible&amp;quot;:true,&amp;quot;rotatable&amp;quot;:true,&amp;quot;linkable&amp;quot;:true,&amp;quot;collapsable&amp;quot;:false,&amp;quot;collapsed&amp;quot;:false,&amp;quot;fixedLink&amp;quot;:false,&amp;quot;markerOffset&amp;quot;:5},&amp;quot;dataAttributes&amp;quot;:[{&amp;quot;name&amp;quot;:&amp;quot;序号&amp;quot;,&amp;quot;type&amp;quot;:&amp;quot;number&amp;quot;,&amp;quot;value&amp;quot;:&amp;quot;&amp;quot;,&amp;quot;category&amp;quot;:&amp;quot;default&amp;quot;,&amp;quot;id&amp;quot;:&amp;quot;IPRnlkyhgO779385&amp;quot;},{&amp;quot;name&amp;quot;:&amp;quot;名称&amp;quot;,&amp;quot;type&amp;quot;:&amp;quot;string&amp;quot;,&amp;quot;value&amp;quot;:&amp;quot;&amp;quot;,&amp;quot;category&amp;quot;:&amp;quot;default&amp;quot;,&amp;quot;id&amp;quot;:&amp;quot;PhkiFdNhGh101312&amp;quot;},{&amp;quot;name&amp;quot;:&amp;quot;所有者&amp;quot;,&amp;quot;type&amp;quot;:&amp;quot;string&amp;quot;,&amp;quot;value&amp;quot;:&amp;quot;&amp;quot;,&amp;quot;category&amp;quot;:&amp;quot;default&amp;quot;,&amp;quot;id&amp;quot;:&amp;quot;vUakzownIQ444440&amp;quot;},{&amp;quot;name&amp;quot;:&amp;quot;连接&amp;quot;,&amp;quot;type&amp;quot;:&amp;quot;link&amp;quot;,&amp;quot;value&amp;quot;:&amp;quot;&amp;quot;,&amp;quot;category&amp;quot;:&amp;quot;default&amp;quot;,&amp;quot;id&amp;quot;:&amp;quot;OdYbEKPJwN289634&amp;quot;},{&amp;quot;name&amp;quot;:&amp;quot;便笺&amp;quot;,&amp;quot;type&amp;quot;:&amp;quot;string&amp;quot;,&amp;quot;value&amp;quot;:&amp;quot;&amp;quot;,&amp;quot;category&amp;quot;:&amp;quot;default&amp;quot;,&amp;quot;id&amp;quot;:&amp;quot;ONlCXNBFum658900&amp;quot;}],&amp;quot;props&amp;quot;:{&amp;quot;x&amp;quot;:308,&amp;quot;y&amp;quot;:155,&amp;quot;w&amp;quot;:194,&amp;quot;h&amp;quot;:78,&amp;quot;zindex&amp;quot;:6,&amp;quot;angle&amp;quot;:0},&amp;quot;shapeStyle&amp;quot;:{&amp;quot;alpha&amp;quot;:1},&amp;quot;lineStyle&amp;quot;:{&amp;quot;lineWidth&amp;quot;:1.5},&amp;quot;fillStyle&amp;quot;:{},&amp;quot;theme&amp;quot;:{},&amp;quot;path&amp;quot;:[{&amp;quot;actions&amp;quot;:[{&amp;quot;action&amp;quot;:&amp;quot;move&amp;quot;,&amp;quot;x&amp;quot;:&amp;quot;0&amp;quot;,&amp;quot;y&amp;quot;:&amp;quot;0&amp;quot;},{&amp;quot;action&amp;quot;:&amp;quot;line&amp;quot;,&amp;quot;x&amp;quot;:&amp;quot;w&amp;quot;,&amp;quot;y&amp;quot;:&amp;quot;0&amp;quot;},{&amp;quot;action&amp;quot;:&amp;quot;line&amp;quot;,&amp;quot;x&amp;quot;:&amp;quot;w&amp;quot;,&amp;quot;y&amp;quot;:&amp;quot;h&amp;quot;},{&amp;quot;action&amp;quot;:&amp;quot;line&amp;quot;,&amp;quot;x&amp;quot;:&amp;quot;0&amp;quot;,&amp;quot;y&amp;quot;:&amp;quot;h&amp;quot;},{&amp;quot;action&amp;quot;:&amp;quot;close&amp;quot;}]}],&amp;quot;fontStyle&amp;quot;:{},&amp;quot;textBlock&amp;quot;:[{&amp;quot;position&amp;quot;:{&amp;quot;x&amp;quot;:10,&amp;quot;y&amp;quot;:0,&amp;quot;w&amp;quot;:&amp;quot;w-20&amp;quot;,&amp;quot;h&amp;quot;:&amp;quot;h&amp;quot;},&amp;quot;text&amp;quot;:&amp;quot;用户点击小程序里的选择手机号授权按钮，&lt;div&gt;调用getPhoneNumber获取encryptedData&amp;nbsp;和&amp;nbsp;iv&lt;/div&gt;&amp;quot;}],&amp;quot;anchors&amp;quot;:[{&amp;quot;x&amp;quot;:&amp;quot;w/2&amp;quot;,&amp;quot;y&amp;quot;:&amp;quot;0&amp;quot;},{&amp;quot;x&amp;quot;:&amp;quot;w/2&amp;quot;,&amp;quot;y&amp;quot;:&amp;quot;h&amp;quot;},{&amp;quot;x&amp;quot;:&amp;quot;0&amp;quot;,&amp;quot;y&amp;quot;:&amp;quot;h/2&amp;quot;},{&amp;quot;x&amp;quot;:&amp;quot;w&amp;quot;,&amp;quot;y&amp;quot;:&amp;quot;h/2&amp;quot;}]}],&amp;quot;client&amp;quot;:&amp;quot;1700989328384vtzvsXbsvK894159&amp;quot;}&quot; data-t=&quot;flow&quot;&gt; &lt;/div&gt;" style="whiteSpace=wrap;html=1;" vertex="1" parent="1">
          <mxGeometry x="100" y="240" width="250" height="60" as="geometry" />
        </mxCell>
        <mxCell id="ezKRabk0gYsE68m_MMmU-14" style="edgeStyle=orthogonalEdgeStyle;rounded=0;orthogonalLoop=1;jettySize=auto;html=1;entryX=1;entryY=0.5;entryDx=0;entryDy=0;" edge="1" parent="1" source="ezKRabk0gYsE68m_MMmU-13" target="ezKRabk0gYsE68m_MMmU-15">
          <mxGeometry relative="1" as="geometry">
            <mxPoint x="250" y="430" as="targetPoint" />
            <Array as="points">
              <mxPoint x="530" y="440" />
            </Array>
          </mxGeometry>
        </mxCell>
        <mxCell id="ezKRabk0gYsE68m_MMmU-16" value="将 token、过期时间、用户信息发给小程序端" style="edgeLabel;html=1;align=center;verticalAlign=middle;resizable=0;points=[];" vertex="1" connectable="0" parent="ezKRabk0gYsE68m_MMmU-14">
          <mxGeometry x="0.1226" relative="1" as="geometry">
            <mxPoint x="8" y="10" as="offset" />
          </mxGeometry>
        </mxCell>
        <mxCell id="ezKRabk0gYsE68m_MMmU-13" value="后端用eData 和 iv 等解密获得手机号&lt;div style=&quot;resize: none; outline: none; font-size: 13px; color: rgb(50, 50, 50); font-family: &amp;quot;Microsoft YaHei&amp;quot;, 微软雅黑, Arial;&quot;&gt;确认用户登录。&lt;br&gt;&lt;div style=&quot;resize: none; outline: none; font-size: inherit;&quot;&gt;生成Token&lt;/div&gt;&lt;/div&gt;" style="whiteSpace=wrap;html=1;" vertex="1" parent="1">
          <mxGeometry x="420" y="330" width="220" height="60" as="geometry" />
        </mxCell>
        <mxCell id="ezKRabk0gYsE68m_MMmU-19" value="" style="edgeStyle=orthogonalEdgeStyle;rounded=0;orthogonalLoop=1;jettySize=auto;html=1;" edge="1" parent="1" source="ezKRabk0gYsE68m_MMmU-15" target="ezKRabk0gYsE68m_MMmU-18">
          <mxGeometry relative="1" as="geometry" />
        </mxCell>
        <mxCell id="ezKRabk0gYsE68m_MMmU-20" value="......" style="edgeLabel;html=1;align=center;verticalAlign=middle;resizable=0;points=[];" vertex="1" connectable="0" parent="ezKRabk0gYsE68m_MMmU-19">
          <mxGeometry x="-0.0375" relative="1" as="geometry">
            <mxPoint as="offset" />
          </mxGeometry>
        </mxCell>
        <mxCell id="ezKRabk0gYsE68m_MMmU-15" value="小程序展示登录成功状态" style="whiteSpace=wrap;html=1;" vertex="1" parent="1">
          <mxGeometry x="100" y="410" width="120" height="60" as="geometry" />
        </mxCell>
        <mxCell id="ezKRabk0gYsE68m_MMmU-22" value="" style="edgeStyle=orthogonalEdgeStyle;rounded=0;orthogonalLoop=1;jettySize=auto;html=1;" edge="1" parent="1" source="ezKRabk0gYsE68m_MMmU-18" target="ezKRabk0gYsE68m_MMmU-21">
          <mxGeometry relative="1" as="geometry" />
        </mxCell>
        <mxCell id="ezKRabk0gYsE68m_MMmU-23" value="将Token等发给后端" style="edgeLabel;html=1;align=center;verticalAlign=middle;resizable=0;points=[];" vertex="1" connectable="0" parent="ezKRabk0gYsE68m_MMmU-22">
          <mxGeometry x="-0.1714" y="3" relative="1" as="geometry">
            <mxPoint y="1" as="offset" />
          </mxGeometry>
        </mxCell>
        <mxCell id="ezKRabk0gYsE68m_MMmU-18" value="用户点击退出登录&lt;div style=&quot;resize: none; outline: none; font-size: 13px; color: rgb(50, 50, 50); font-family: &amp;quot;Microsoft YaHei&amp;quot;, 微软雅黑, Arial;&quot;&gt;小程序清除所有登录信息&lt;/div&gt;" style="whiteSpace=wrap;html=1;" vertex="1" parent="1">
          <mxGeometry x="100" y="550" width="120" height="60" as="geometry" />
        </mxCell>
        <mxCell id="ezKRabk0gYsE68m_MMmU-21" value="记录退出信息等&lt;div data-processon-v=&quot;{&amp;quot;list&amp;quot;:[{&amp;quot;id&amp;quot;:&amp;quot;YyvOuykASx088054&amp;quot;,&amp;quot;name&amp;quot;:&amp;quot;process&amp;quot;,&amp;quot;title&amp;quot;:&amp;quot;流程&amp;quot;,&amp;quot;category&amp;quot;:&amp;quot;flow&amp;quot;,&amp;quot;group&amp;quot;:&amp;quot;&amp;quot;,&amp;quot;groupName&amp;quot;:null,&amp;quot;locked&amp;quot;:false,&amp;quot;link&amp;quot;:&amp;quot;&amp;quot;,&amp;quot;children&amp;quot;:[],&amp;quot;parent&amp;quot;:&amp;quot;&amp;quot;,&amp;quot;resizeDir&amp;quot;:[&amp;quot;tl&amp;quot;,&amp;quot;tr&amp;quot;,&amp;quot;br&amp;quot;,&amp;quot;bl&amp;quot;,&amp;quot;l&amp;quot;,&amp;quot;t&amp;quot;,&amp;quot;r&amp;quot;,&amp;quot;b&amp;quot;],&amp;quot;attribute&amp;quot;:{&amp;quot;container&amp;quot;:false,&amp;quot;visible&amp;quot;:true,&amp;quot;rotatable&amp;quot;:true,&amp;quot;linkable&amp;quot;:true,&amp;quot;collapsable&amp;quot;:false,&amp;quot;collapsed&amp;quot;:false,&amp;quot;fixedLink&amp;quot;:false,&amp;quot;markerOffset&amp;quot;:5},&amp;quot;dataAttributes&amp;quot;:[{&amp;quot;name&amp;quot;:&amp;quot;序号&amp;quot;,&amp;quot;type&amp;quot;:&amp;quot;number&amp;quot;,&amp;quot;value&amp;quot;:&amp;quot;&amp;quot;,&amp;quot;category&amp;quot;:&amp;quot;default&amp;quot;,&amp;quot;id&amp;quot;:&amp;quot;RcOkfXCMeQ092151&amp;quot;},{&amp;quot;name&amp;quot;:&amp;quot;名称&amp;quot;,&amp;quot;type&amp;quot;:&amp;quot;string&amp;quot;,&amp;quot;value&amp;quot;:&amp;quot;&amp;quot;,&amp;quot;category&amp;quot;:&amp;quot;default&amp;quot;,&amp;quot;id&amp;quot;:&amp;quot;mjRfVDqVmg161558&amp;quot;},{&amp;quot;name&amp;quot;:&amp;quot;所有者&amp;quot;,&amp;quot;type&amp;quot;:&amp;quot;string&amp;quot;,&amp;quot;value&amp;quot;:&amp;quot;&amp;quot;,&amp;quot;category&amp;quot;:&amp;quot;default&amp;quot;,&amp;quot;id&amp;quot;:&amp;quot;YxjZMXOmIz936855&amp;quot;},{&amp;quot;name&amp;quot;:&amp;quot;连接&amp;quot;,&amp;quot;type&amp;quot;:&amp;quot;link&amp;quot;,&amp;quot;value&amp;quot;:&amp;quot;&amp;quot;,&amp;quot;category&amp;quot;:&amp;quot;default&amp;quot;,&amp;quot;id&amp;quot;:&amp;quot;ADFLenazVa085373&amp;quot;},{&amp;quot;name&amp;quot;:&amp;quot;便笺&amp;quot;,&amp;quot;type&amp;quot;:&amp;quot;string&amp;quot;,&amp;quot;value&amp;quot;:&amp;quot;&amp;quot;,&amp;quot;category&amp;quot;:&amp;quot;default&amp;quot;,&amp;quot;id&amp;quot;:&amp;quot;QUAQOhYLag889093&amp;quot;},{&amp;quot;name&amp;quot;:&amp;quot;成本&amp;quot;,&amp;quot;type&amp;quot;:&amp;quot;number&amp;quot;,&amp;quot;value&amp;quot;:&amp;quot;&amp;quot;,&amp;quot;category&amp;quot;:&amp;quot;default&amp;quot;,&amp;quot;id&amp;quot;:&amp;quot;LOkmJrMOBV440724&amp;quot;},{&amp;quot;name&amp;quot;:&amp;quot;时间&amp;quot;,&amp;quot;type&amp;quot;:&amp;quot;number&amp;quot;,&amp;quot;value&amp;quot;:&amp;quot;&amp;quot;,&amp;quot;category&amp;quot;:&amp;quot;default&amp;quot;,&amp;quot;id&amp;quot;:&amp;quot;NrhMzSWmPq087178&amp;quot;},{&amp;quot;name&amp;quot;:&amp;quot;部门&amp;quot;,&amp;quot;type&amp;quot;:&amp;quot;string&amp;quot;,&amp;quot;value&amp;quot;:&amp;quot;&amp;quot;,&amp;quot;category&amp;quot;:&amp;quot;default&amp;quot;,&amp;quot;id&amp;quot;:&amp;quot;SfkADtQipq179446&amp;quot;},{&amp;quot;name&amp;quot;:&amp;quot;输入&amp;quot;,&amp;quot;type&amp;quot;:&amp;quot;string&amp;quot;,&amp;quot;value&amp;quot;:&amp;quot;&amp;quot;,&amp;quot;category&amp;quot;:&amp;quot;default&amp;quot;,&amp;quot;id&amp;quot;:&amp;quot;vJObVbTJyW075173&amp;quot;},{&amp;quot;name&amp;quot;:&amp;quot;输出&amp;quot;,&amp;quot;type&amp;quot;:&amp;quot;string&amp;quot;,&amp;quot;value&amp;quot;:&amp;quot;&amp;quot;,&amp;quot;category&amp;quot;:&amp;quot;default&amp;quot;,&amp;quot;id&amp;quot;:&amp;quot;kYkevbiqpA420964&amp;quot;},{&amp;quot;name&amp;quot;:&amp;quot;风险&amp;quot;,&amp;quot;type&amp;quot;:&amp;quot;string&amp;quot;,&amp;quot;value&amp;quot;:&amp;quot;&amp;quot;,&amp;quot;category&amp;quot;:&amp;quot;default&amp;quot;,&amp;quot;id&amp;quot;:&amp;quot;ZxvqSOtbbd996473&amp;quot;},{&amp;quot;name&amp;quot;:&amp;quot;备注&amp;quot;,&amp;quot;type&amp;quot;:&amp;quot;string&amp;quot;,&amp;quot;value&amp;quot;:&amp;quot;&amp;quot;,&amp;quot;category&amp;quot;:&amp;quot;default&amp;quot;,&amp;quot;id&amp;quot;:&amp;quot;LnvoAnWGdG294868&amp;quot;}],&amp;quot;props&amp;quot;:{&amp;quot;x&amp;quot;:629,&amp;quot;y&amp;quot;:529,&amp;quot;w&amp;quot;:178,&amp;quot;h&amp;quot;:34,&amp;quot;zindex&amp;quot;:14,&amp;quot;angle&amp;quot;:0},&amp;quot;shapeStyle&amp;quot;:{&amp;quot;alpha&amp;quot;:1},&amp;quot;lineStyle&amp;quot;:{&amp;quot;lineWidth&amp;quot;:1.5},&amp;quot;fillStyle&amp;quot;:{},&amp;quot;theme&amp;quot;:{},&amp;quot;path&amp;quot;:[{&amp;quot;actions&amp;quot;:[{&amp;quot;action&amp;quot;:&amp;quot;move&amp;quot;,&amp;quot;x&amp;quot;:&amp;quot;0&amp;quot;,&amp;quot;y&amp;quot;:&amp;quot;0&amp;quot;},{&amp;quot;action&amp;quot;:&amp;quot;line&amp;quot;,&amp;quot;x&amp;quot;:&amp;quot;w&amp;quot;,&amp;quot;y&amp;quot;:&amp;quot;0&amp;quot;},{&amp;quot;action&amp;quot;:&amp;quot;line&amp;quot;,&amp;quot;x&amp;quot;:&amp;quot;w&amp;quot;,&amp;quot;y&amp;quot;:&amp;quot;h&amp;quot;},{&amp;quot;action&amp;quot;:&amp;quot;line&amp;quot;,&amp;quot;x&amp;quot;:&amp;quot;0&amp;quot;,&amp;quot;y&amp;quot;:&amp;quot;h&amp;quot;},{&amp;quot;action&amp;quot;:&amp;quot;close&amp;quot;}]}],&amp;quot;fontStyle&amp;quot;:{},&amp;quot;textBlock&amp;quot;:[{&amp;quot;position&amp;quot;:{&amp;quot;x&amp;quot;:10,&amp;quot;y&amp;quot;:0,&amp;quot;w&amp;quot;:&amp;quot;w-20&amp;quot;,&amp;quot;h&amp;quot;:&amp;quot;h&amp;quot;},&amp;quot;text&amp;quot;:&amp;quot;记录退出信息等&amp;quot;}],&amp;quot;anchors&amp;quot;:[{&amp;quot;x&amp;quot;:&amp;quot;w/2&amp;quot;,&amp;quot;y&amp;quot;:&amp;quot;0&amp;quot;},{&amp;quot;x&amp;quot;:&amp;quot;w/2&amp;quot;,&amp;quot;y&amp;quot;:&amp;quot;h&amp;quot;},{&amp;quot;x&amp;quot;:&amp;quot;0&amp;quot;,&amp;quot;y&amp;quot;:&amp;quot;h/2&amp;quot;},{&amp;quot;x&amp;quot;:&amp;quot;w&amp;quot;,&amp;quot;y&amp;quot;:&amp;quot;h/2&amp;quot;}]}],&amp;quot;client&amp;quot;:&amp;quot;1700989328384vtzvsXbsvK894159&amp;quot;}&quot; data-t=&quot;flow&quot;&gt;&lt;/div&gt;" style="whiteSpace=wrap;html=1;" vertex="1" parent="1">
          <mxGeometry x="430" y="550" width="210" height="60" as="geometry" />
        </mxCell>
      </root>
    </mxGraphModel>
  </diagram>
</mxfile>
